<svg xmlns="http://www.w3.org/2000/svg" viewBox="0 0 2000 1000" preserveAspectRatio="xMidYMid meet" class="world-svg" role="img" aria-label="World map">
<style>.world-land path{fill:#d4d9e4;stroke:#aeb6c7;stroke-width:0.6}</style>
<g class="world-land">
<path d="M 1989.6 597.2 1992 600.8 1985.5 600.9 1987.1 596.6 1989.6 597.2 Z"/>
<path d="M 1188.4 505.3 1217.8 526 1217.7 547.1 1224 557.3 1202.9 565.1 1192 564 1182 551.3 1170.8 546.3 1163 525 1169.3 513.4 1169 506.3 1188.4 505.3 Z"/>
<path d="M 951.9 346.4 951.8 347.8 933.5 355.9 928.2 381.5 905.2 383.3 905.4 381 918.1 380.6 936.7 350.6 951.9 346.4 Z"/>
<path d="M 317.6 227.8 292 217.6 274.8 195.5 247.4 167.8 216.7 165 216.7 112.7 241.6 117.2 292 109 389.2 122.3 453.1 123.4 471.1 100.4 511 118.8 547.9 127.2 482.5 155.4 474.3 166.1 495 181.8 542.9 193.6 574.8 185.9 563.8 173.3 566.1 153.8 589.8 153.1 641.2 164.8 669.1 193.3 690.6 210.3 666.5 220.9 638.6 226.5 641.8 243.1 627 249.2 615.3 236.4 602.7 250 542 268.5 541.4 248.1 509 231.7 471.3 227.8 405.3 227.8 355.3 227.8 317.6 227.8 Z M 691.1 214.9 705.2 240.8 670.7 235.5 691.1 214.9 Z M 562.4 98 627.9 115.6 654.6 132.4 632.4 155.9 605.4 150.5 567.2 137.2 596.4 126.2 570.6 112.4 528.1 111.3 498.9 98.7 542.7 90.3 562.4 98 Z M 408.2 94 411.3 115.7 370.5 119.2 336.7 102.5 360.1 92.7 408.2 94 Z M 491.2 45 656.1 42.4 552.4 76.8 502.8 75.2 527.3 59.2 491.2 45 Z" fill-rule="evenodd"/>
<path d="M 317.6 227.8 355.3 227.8 405.3 227.8 471.3 227.8 509 231.7 541.4 248.1 542 268.5 602.7 250 615.3 236.4 627 249.2 610.5 257.3 607.6 269.6 589 274.3 579.3 289.2 579.3 302.5 547.3 329.3 555.2 350.7 549 360 534.9 333.7 504.6 331.6 473.9 336.2 459.1 347.9 458.2 356.4 449.9 353.5 439.1 336.8 419.7 335.7 408.3 323.6 383.2 325.9 349.3 319.2 331.3 308.6 312.6 283.6 308.2 262.4 307.3 232.3 317.6 227.8 Z M 216.7 112.7 216.7 165 247.4 167.8 274.8 195.5 255.1 177.1 223 169.2 177.7 166.8 123.8 180.2 77.1 158.3 85.8 149.2 66.1 135.2 100.5 109.3 216.7 112.7 Z" fill-rule="evenodd"/>
<path d="M 1485.3 226.6 1473.1 238.9 1444.3 250.5 1445.9 264.7 1412.3 259.5 1394.2 265.2 1370.6 271.3 1360.6 257.1 1344.5 258.3 1325 246.7 1310.7 250 1310.9 270.5 1291.7 267.9 1272.8 242.2 1258.1 231.1 1264.2 219.7 1282 212.8 1309.5 218.8 1333.2 211.3 1341.3 200 1383.7 192.3 1413.2 202.5 1425.1 199 1444.6 217.4 1463.2 216.3 1485.3 226.6 Z"/>
<path d="M 1310.9 270.5 1310.7 250 1325 246.7 1344.5 258.3 1360.6 257.1 1370.6 271.3 1394.2 265.2 1394.5 276.4 1385.2 273.7 1376.8 293.6 1369.5 292.4 1333.8 269.9 1310.9 270.5 Z"/>
<path d="M 1783.3 514.4 1803.2 521.5 1832.1 557.7 1821.7 556.3 1804.1 542.4 1783.5 550.7 1783.3 514.4 Z"/>
<path d="M 1783.3 514.4 1783.5 550.7 1770.4 540.7 1766.3 530 1746.8 515.4 1768.5 509.5 1783.3 514.4 Z M 1654.9 477 1652.9 504.5 1644.4 520.3 1612.4 516.3 1606.1 502.6 1609.2 488.9 1614 495.7 1636.8 492.1 1643.7 476.1 1654.9 477 Z M 1579.8 506 1589.5 517 1587.9 532.5 1569.9 523.4 1547.8 489.9 1564.8 488.4 1579.8 506 Z" fill-rule="evenodd"/>
<path d="M 679.9 667.9 675.4 688.4 684.5 705 654.7 726 642.3 738.2 635.3 762.4 615.9 781.8 619 790.6 592.6 779.9 602.5 753.1 599.2 734.7 604.9 703.7 612.1 690 608.1 674.3 620.6 649.4 627.2 626.3 651.7 623.6 679 639.8 696.5 643 702 649.6 679.9 667.9 Z"/>
<path d="M 613.4 597.7 627.2 626.3 620.6 649.4 608.1 674.3 612.1 690 604.9 703.7 599.2 734.7 602.5 753.1 592.6 779.9 619 790.6 596.9 797.4 583.6 790.3 579.8 759.2 585 754.2 593.5 706.2 603.1 680.1 606.1 653.6 610.6 618.9 609 601.9 613.4 597.7 Z"/>
<path d="M 1163 525 1170.8 546.3 1159.6 547.4 1156.4 568.2 1132.8 560.7 1123.1 561.6 1120.7 540.5 1097.1 544.8 1090.7 532.7 1068.5 533.9 1067.7 532.2 1072.2 526.6 1081 527.6 1097.4 504.1 1102.5 480.5 1108.2 472 1124.5 477.6 1152.1 470.9 1171.3 480.5 1164.3 507.5 1161.2 515.8 1163 525 Z"/>
<path d="M 1231 509.4 1227.7 484.5 1232.5 478.2 1249.8 472.2 1265.5 455.5 1271.9 436.6 1283.6 440.9 1274.7 462.2 1258.7 484.1 1231 509.4 Z"/>
<path d="M 1217.8 526 1188.4 505.3 1194.6 489.4 1188.9 476.4 1196.1 469.4 1219.8 481 1232.5 478.2 1227.7 484.5 1231 509.4 1217.8 526 Z"/>
<path d="M 1136.5 454.3 1127 438.1 1122.4 428 1132.7 413.3 1132.4 391.2 1138.9 377.8 1204.8 377.8 1213.4 400 1204.7 405.8 1202.4 419.9 1190.3 440.9 1188.7 451.8 1174.2 445.5 1147.1 446.9 1136.5 454.3 Z"/>
<path d="M 1132.4 391.2 1132.7 413.3 1122.4 428 1127 438.1 1099.8 456.2 1084.9 458.8 1077.5 446.9 1080.5 428.6 1075.2 420.2 1084.7 407.6 1088.4 386.7 1082.5 373 1088.1 369.9 1132.4 391.2 Z"/>
<path d="M 601.6 390.5 601.6 399.8 596.1 397.5 601.6 390.5 Z"/>
<path d="M 601.6 399.8 601.6 390.5 606.6 389.6 620.5 396.6 601.6 399.8 Z"/>
<path d="M 1272.8 242.2 1259.3 252.2 1269.9 267.7 1257.8 267.4 1222 258.7 1208.6 251.9 1212.4 238.3 1222.6 224.4 1196.4 219 1176.6 210.5 1171.5 191.4 1156.5 187.9 1151.6 180.7 1155.5 169.6 1155.9 163.9 1173 153.6 1158.8 116.3 1172.8 113.6 1202.9 116.3 1244.2 132.9 1298.4 117.5 1352.8 113.6 1388.6 94.2 1447.3 90.8 1549.6 75.3 1617.1 73.8 1633.2 91.1 1705.4 91.3 1713.7 100.1 1780.4 95.3 1872.3 105.4 1894.1 114.2 1976.2 111.8 2000 116.9 2000 139 1996.5 150.1 1948.3 164.8 1908.6 167.4 1900.7 195.2 1871.1 216.6 1863.5 192.3 1889.6 163.6 1870.7 158.7 1840.4 173.4 1790 172 1750.7 195.9 1785.3 205.1 1778.1 230.9 1749.3 258.9 1726.6 265.4 1725.8 264.5 1750.1 230.7 1727.7 234.5 1709.2 223.6 1699.7 206.7 1670.8 211.3 1648.2 222.8 1614.8 227.1 1576 221.7 1549.2 210.8 1540.3 223.7 1512.4 217.8 1487.5 226.1 1485.3 226.6 1463.2 216.3 1444.6 217.4 1425.1 199 1413.2 202.5 1383.7 192.3 1341.3 200 1333.2 211.3 1309.5 218.8 1282 212.8 1264.2 219.7 1258.1 231.1 1272.8 242.2 Z M 1126.3 198.2 1109.2 197.6 1118.2 193.4 1126.3 198.2 Z" fill-rule="evenodd"/>
<path d="M 565.6 359.9 567.3 360.2 569.2 364.8 564.4 363.5 565.6 359.9 Z"/>
<path d="M 660 788.1 666.7 784.7 677.5 788.3 662.8 790.6 660 788.1 Z"/>
<path d="M 1172.8 113.6 1158.8 116.3 1114.7 116.1 1093.2 122.1 1066.3 149.3 1061.3 173 1031.5 174.5 1027.7 155.7 1058.5 141.7 1106.6 112.1 1156.5 104.5 1172.8 113.6 Z"/>
<path d="M 740.2 41 849.4 36 932.2 48.4 890.5 62.5 892.4 87.2 875.8 110.4 845.8 119.6 778.8 136.3 759 166.1 731.9 161.9 713.1 146.5 700.2 126.7 700 102.5 674.5 80.5 619.4 77.4 593.6 64.3 651.9 45.7 740.2 41 Z"/>
<path d="M 1383 770.1 1391.8 772.6 1390.4 776.2 1381.9 776.5 1383 770.1 Z"/>
<path d="M 1694.3 549.4 1703.6 546.7 1705.4 548.2 1694.9 552.2 1694.3 549.4 Z"/>
<path d="M 1090.8 658.8 1110.5 658.1 1110.5 637.6 1120 648.5 1129.5 640.4 1142.6 641.6 1163.5 622.7 1173.3 623.6 1176.9 643.6 1172.5 643 1170.5 648.6 1178.2 648.5 1182.4 648.6 1180.3 657.2 1156.8 682.1 1143.2 688.6 1125.4 688.1 1109 693.4 1090.8 658.8 Z M 1161 660.9 1150 666 1154.2 670.3 1160.3 667.1 1161 660.9 Z" fill-rule="evenodd"/>
<path d="M 1161 660.9 1160.3 667.1 1154.2 670.3 1150 666 1161 660.9 Z"/>
<path d="M 349.3 319.2 383.2 325.9 408.3 323.6 419.7 335.7 439.1 336.8 449.9 353.5 458.2 356.4 456.3 375.3 467.2 395.4 475.4 399.2 495.7 392.9 498.5 383.3 516.4 380.3 509.4 397.2 504.8 401.1 494.4 401 487.6 419.2 473.9 410 463.6 413 439.8 404.6 416.7 392.7 411 373.5 392.8 353.1 364.1 349.2 349.3 319.2 Z"/>
<path d="M 679.9 667.9 701.2 678 703.5 687.6 694.8 694.2 675.4 688.4 679.9 667.9 Z"/>
<path d="M 703.5 687.6 701.2 678 679.9 667.9 702 649.6 696.5 643 691.1 625.9 678.1 622.7 676.9 612.1 676.4 590.6 665.8 590.3 663.9 576.5 636.7 564.3 637 554.2 613.7 560.8 599 555.9 589 541.8 595 529.3 611.7 523.9 612.1 490.5 628.5 493 643.3 491.7 642.4 478.9 662.6 471.1 672.1 492.7 685.9 489.4 697.1 487.2 713 476.9 729.9 501.3 769.6 516.2 777.9 516 804.2 530.4 804.8 550 783.6 576.6 779.1 608.9 766.7 627.6 741.8 633.8 730.6 643.8 728.4 659.3 703.5 687.6 Z"/>
<path d="M 613.7 560.8 637 554.2 636.7 564.3 663.9 576.5 665.8 590.3 676.4 590.6 676.9 612.1 656.7 609.1 651.7 623.6 627.2 626.3 613.4 597.7 618.5 569.8 613.7 560.8 Z"/>
<path d="M 611.7 523.9 595 529.3 589 541.8 599 555.9 613.7 560.8 618.5 569.8 613.4 597.7 609 601.9 577.7 581.4 556.9 540 548.6 534.1 553.9 518.9 567.6 516.7 581.3 500.8 594.1 512.8 606.6 512.5 611.7 523.9 Z"/>
<path d="M 628.5 493 612.1 490.5 611.7 523.9 606.6 512.5 594.1 512.8 581.3 500.8 561.9 492.3 571.5 478.6 567.3 459.9 570.3 451.8 580.7 441 603.7 434.6 595 441.9 600.2 461.2 623.2 475 628.5 493 Z"/>
<path d="M 570.3 451.8 567.3 459.9 539.1 454.3 541.4 446.9 570.3 451.8 Z"/>
<path d="M 541.4 446.9 539.1 454.3 523.8 438.4 535.2 439.2 541.4 446.9 Z"/>
<path d="M 535.2 439.2 523.8 438.4 514.9 427.9 538.1 416.7 535.2 439.2 Z"/>
<path d="M 538.1 416.7 514.9 427.9 512.3 425.6 503.6 419.9 509.9 412.6 531.3 412 538.1 416.7 Z"/>
<path d="M 503.6 419.9 512.3 425.6 499.5 423.7 503.6 419.9 Z"/>
<path d="M 487.6 419.2 494.4 401 504.8 401.1 505.9 411.7 509.9 412.6 503.6 419.9 499.5 423.7 487.6 419.2 Z"/>
<path d="M 504.8 401.1 509.4 397.2 505.9 411.7 504.8 401.1 Z"/>
<path d="M 662.6 471.1 642.4 478.9 643.3 491.7 628.5 493 623.2 475 600.2 461.2 595 441.9 603.7 434.6 621.1 441.4 651.5 442.1 668 453.5 662.6 471.1 Z"/>
<path d="M 685.9 489.4 672.1 492.7 662.6 471.1 668 453.5 682.5 466.8 677.5 477.4 685.9 489.4 Z"/>
<path d="M 697.1 487.2 685.9 489.4 677.5 477.4 682.5 466.8 700.2 468 697.1 487.2 Z"/>
<path d="M 713 476.9 697.1 487.2 700.2 468 713 476.9 Z M 1034.4 225.2 1041.5 235.4 1038 244.5 1041.3 257.3 1016.6 264 989.4 258.8 993.4 244.4 983.5 235.7 1014 215.8 1031.5 224.8 1034.4 225.2 Z" fill-rule="evenodd"/>
<path d="M 581.3 500.8 567.6 516.7 553.9 518.9 550.4 505.9 561.9 492.3 581.3 500.8 Z"/>
<path d="M 631.8 397.1 634.2 400.1 626.8 400.3 627.2 397.1 631.8 397.1 Z"/>
<path d="M 569.1 397.3 575.7 399.1 571.1 401.7 569.1 397.3 Z"/>
<path d="M 543 371.2 564.7 374.9 574.9 382.2 568 389.7 562.7 380 545.4 376.7 543 371.2 Z"/>
<path d="M 1173.3 623.6 1163.5 622.7 1155.7 619.4 1140.4 598.5 1150.2 599.7 1168.2 586.2 1182.5 592.9 1182.1 609.5 1173.3 623.6 Z"/>
<path d="M 1163.5 622.7 1142.6 641.6 1129.5 640.4 1120 648.5 1110.5 637.6 1116 621.2 1116.2 601.4 1139.4 598.1 1140.4 598.5 1155.7 619.4 1163.5 622.7 Z"/>
<path d="M 1110.5 637.6 1110.5 658.1 1090.8 658.8 1084.5 650.5 1079.2 622.8 1065.2 596.1 1101.5 596.2 1129 597.4 1139.4 598.1 1116.2 601.4 1116 621.2 1110.5 637.6 Z"/>
<path d="M 907.1 424.5 908.5 410.4 919 407.8 932.4 418.8 936 430.9 923.9 430.1 907.3 431.2 906.4 426.9 911.5 427.1 913.2 424.3 907.1 424.5 Z"/>
<path d="M 936 430.9 932.4 418.8 935.2 414.5 969.2 413.9 964.1 361.4 972.6 361.3 1023.7 393.6 1020.2 413.5 1002.1 417.1 988.9 419.1 971 434.9 970 442.4 955.4 443.3 949.3 431.6 936 430.9 Z"/>
<path d="M 905.2 383.3 928.2 381.5 933.5 355.9 951.8 347.8 972.6 361.3 964.1 361.4 969.2 413.9 935.2 414.5 932.4 418.8 919 407.8 908.5 410.4 905.2 383.3 Z"/>
<path d="M 1015 465.2 1010.4 465.9 1005 438.9 1012 433.7 1020.1 435.2 1015 465.2 Z"/>
<path d="M 1082.5 373 1088.4 386.7 1084.7 407.6 1075.2 420.2 1080.5 428.6 1078.8 430.6 1050.1 428.7 1024.3 423.6 1020.1 435.2 1012 433.7 1002.1 417.1 1020.2 413.5 1023.7 393.6 1066.7 369.6 1082.5 373 Z"/>
<path d="M 1015 465.2 1020.1 435.2 1024.3 423.6 1050.1 428.7 1078.8 430.6 1065.3 461.2 1051.3 464.2 1047.2 473.5 1032.8 476.3 1015 465.2 Z"/>
<path d="M 1080.5 428.6 1077.5 446.9 1084.9 458.8 1080.4 473.7 1089 487.4 1072.6 487.4 1062.6 487.4 1053.6 487.3 1047.2 473.5 1051.3 464.2 1065.3 461.2 1078.8 430.6 1080.5 428.6 Z"/>
<path d="M 1005 438.9 1010.4 465.9 1005.9 467.1 1000.1 438.8 1005 438.9 Z"/>
<path d="M 1000.1 438.8 1005.9 467.1 984.1 472.3 984.3 446.4 1000.1 438.8 Z"/>
<path d="M 955.4 443.3 970 442.4 984.3 446.4 984.1 472.3 957.2 475.8 953.1 457.3 955.4 443.3 Z"/>
<path d="M 923.9 430.1 936 430.9 949.3 431.6 955.4 443.3 953.1 457.3 943.2 453.3 926.4 450.5 915.9 438.7 923.9 430.1 Z"/>
<path d="M 907.3 431.2 923.9 430.1 915.9 438.7 907.3 431.2 Z"/>
<path d="M 953.1 457.3 957.2 475.8 936.5 462.3 943.2 453.3 953.1 457.3 Z"/>
<path d="M 926.4 450.5 943.2 453.3 936.5 462.3 926.4 450.5 Z"/>
<path d="M 970 442.4 971 434.9 988.9 419.1 1002.1 417.1 1012 433.7 1005 438.9 1000.1 438.8 984.3 446.4 970 442.4 Z"/>
<path d="M 1152.1 470.9 1124.5 477.6 1108.2 472 1102.5 480.5 1089 487.4 1080.4 473.7 1084.9 458.8 1099.8 456.2 1127 438.1 1136.5 454.3 1152.1 470.9 Z"/>
<path d="M 1102.5 480.5 1097.4 504.1 1081 527.6 1072.2 526.6 1066.2 528 1061.6 522.1 1080.1 507.4 1072.6 487.4 1089 487.4 1102.5 480.5 Z"/>
<path d="M 1062.6 487.4 1072.6 487.4 1080.1 507.4 1061.6 522.1 1048.9 506.2 1052.7 494.4 1062.6 487.4 Z"/>
<path d="M 1053.6 487.3 1062.6 487.4 1052.7 494.4 1053.6 487.3 Z"/>
<path d="M 1170.8 546.3 1182 551.3 1184.5 577.6 1168.2 586.2 1150.2 599.7 1140.4 598.5 1139.4 598.1 1129 597.4 1121.6 589.3 1121.9 571.7 1132.8 560.7 1156.4 568.2 1159.6 547.4 1170.8 546.3 Z"/>
<path d="M 1182 551.3 1192 564 1184.5 577.6 1182 551.3 Z"/>
<path d="M 1192 564 1202.9 565.1 1224 557.3 1226.5 581.6 1219.2 592.9 1193.3 609.9 1197 634 1182.4 648.6 1178.2 648.5 1176.9 643.6 1173.3 623.6 1182.1 609.5 1182.5 592.9 1168.2 586.2 1184.5 577.6 1192 564 Z"/>
<path d="M 1178.2 648.5 1170.5 648.6 1172.5 643 1176.9 643.6 1178.2 648.5 Z"/>
<path d="M 1072.2 526.6 1067.7 532.2 1066.2 528 1072.2 526.6 Z M 1068.5 533.9 1090.7 532.7 1097.1 544.8 1120.7 540.5 1123.1 561.6 1132.8 560.7 1121.9 571.7 1121.6 589.3 1129 597.4 1101.5 596.2 1065.2 596.1 1075.7 566.9 1068.5 533.9 Z" fill-rule="evenodd"/>
<path d="M 1169.3 513.4 1163 525 1161.2 515.8 1169.3 513.4 Z"/>
<path d="M 1198.4 318.3 1197.5 320 1195.5 319.3 1194 325.8 1196.7 325.1 1194 336.1 1193.5 334.7 1190.4 326.6 1195.1 316.2 1199 315.1 1198.4 318.3 Z"/>
<path d="M 1199 315.1 1195.1 316.2 1200 307.5 1199 315.1 Z"/>
<path d="M 1275.2 569.3 1280.4 584.6 1275 595 1261.6 638.6 1244.7 638.8 1240.3 622.5 1246.5 611.5 1244.2 596.7 1275.2 569.3 Z"/>
<path d="M 1196.7 325.1 1194 325.8 1195.5 319.3 1197.5 320 1196.7 325.1 Z"/>
<path d="M 907.1 424.5 913.2 424.3 911.5 427.1 906.4 426.9 907.1 424.5 Z"/>
<path d="M 1052.7 331.6 1042.3 314.8 1046.8 294.7 1060.8 301.7 1063.8 315.9 1052.7 331.6 Z"/>
<path d="M 951.8 347.8 951.9 346.4 992.7 320.8 987.9 304.6 1008.1 296.6 1046.8 294.7 1042.3 314.8 1052.7 331.6 1057.2 364.6 1066.7 369.6 1023.7 393.6 972.6 361.3 951.8 347.8 Z"/>
<path d="M 1197.5 320 1198.4 318.3 1215.5 314.6 1217.8 321.3 1211.1 330.5 1194.2 336.9 1194 336.1 1196.7 325.1 1197.5 320 Z"/>
<path d="M 1286.6 365.3 1300 366 1311.5 355.2 1312.6 357.1 1313.3 361.5 1306.7 373.8 1286.6 365.3 Z"/>
<path d="M 1282.3 362.5 1283.4 355.5 1286.6 356.7 1285.5 363.2 1282.3 362.5 Z"/>
<path d="M 1266.5 333.5 1269 341.4 1258.7 338.3 1266.5 333.5 Z"/>
<path d="M 1217.8 321.3 1215.5 314.6 1227.8 308.8 1235.3 293.2 1248.7 293.5 1252.3 311.3 1269.8 333.7 1266.5 333.5 1258.7 338.3 1248.4 337.9 1217.8 321.3 Z"/>
<path d="M 1306.7 373.8 1313.3 361.5 1332.3 376.1 1321 394.1 1295 407.5 1288.9 394.4 1305.6 388.9 1306.7 373.8 Z"/>
<path d="M 1926.6 587 1925.7 581.3 1928.4 583 1929.3 587.4 1926.6 587 Z"/>
<path d="M 1569.9 432.3 1572.2 421 1584.5 420.7 1596.6 421.1 1597.2 431.5 1579.6 441.7 1569.9 432.3 Z"/>
<path d="M 1584.5 420.7 1572.2 421 1569.9 432.3 1561 425.5 1550.9 444.6 1567.5 465.4 1556 464.1 1547.5 444.8 1553.3 433.9 1543.7 402.4 1556.2 386.6 1567.3 399.4 1577.5 398.7 1584.5 420.7 Z"/>
<path d="M 1596.6 421.1 1584.5 420.7 1577.5 398.7 1567.3 399.4 1556.2 386.6 1562.1 380.9 1567.6 375.2 1580.2 384.7 1596.6 421.1 Z"/>
<path d="M 1556.2 386.6 1543.7 402.4 1553.3 433.9 1547.5 444.8 1548.7 436.4 1539.8 406 1524 398.8 1513.2 385.2 1514.8 377.5 1528.5 352.4 1540.7 343 1548.2 347.2 1551.3 377.1 1562.1 380.9 1556.2 386.6 Z"/>
<path d="M 1579.6 441.7 1597.2 431.5 1596.6 421.1 1580.2 384.7 1567.6 375.2 1585.2 370.3 1600.3 380.3 1587 394.1 1604.9 415.1 1606.7 435.2 1584.2 452.2 1579.6 441.7 Z"/>
<path d="M 1725.8 264.5 1726.6 265.4 1708.5 279.1 1713.1 285.5 1701 290.3 1690.4 278.2 1704.8 267.7 1725.8 264.5 Z"/>
<path d="M 1701 290.3 1713.1 285.5 1717.2 305.1 1702.7 308.9 1701 290.3 Z"/>
<path d="M 1487.5 226.1 1512.4 217.8 1540.3 223.7 1549.2 210.8 1576 221.7 1614.8 227.1 1648.2 222.8 1652.3 240.7 1606.9 263.8 1583.1 268.9 1535.3 262.6 1529.5 254.2 1505.3 248.4 1505.4 239.5 1487.5 226.1 Z"/>
<path d="M 1540.7 343 1528.5 352.4 1514.8 377.5 1510.6 365.9 1489.4 363.9 1494.6 377.5 1446.2 411.7 1443.7 442.5 1425.5 450.6 1408.5 411.2 1403.5 381.4 1391.5 384 1378.8 368.4 1394.7 364.7 1389.8 352.8 1413.5 327.9 1412.4 307 1432.4 302.8 1437.4 324.9 1450.6 332.3 1444.9 340 1473.6 351.5 1489.6 345.1 1493.4 348.3 1509.4 345.7 1525.4 337.3 1540.7 343 Z"/>
<path d="M 1514.8 377.5 1513.2 385.2 1507.9 373.5 1494.6 377.5 1489.4 363.9 1510.6 365.9 1514.8 377.5 Z"/>
<path d="M 1509.4 345.7 1493.4 348.3 1500.1 342.8 1509.4 345.7 Z"/>
<path d="M 1489.6 345.1 1473.6 351.5 1444.9 340 1450.6 332.3 1476.8 343.3 1489.6 345.1 Z"/>
<path d="M 1432.4 302.8 1412.4 307 1413.5 327.9 1389.8 352.8 1394.7 364.7 1378.8 368.4 1368.7 358.7 1341.7 360.7 1351.8 351.4 1338.2 334.3 1368.6 334 1382.9 324.3 1399.1 297.2 1417.5 293.7 1432.4 302.8 Z"/>
<path d="M 1369.5 292.4 1376.8 293.6 1397.5 289.4 1416.6 292.1 1417.5 293.7 1399.1 297.2 1382.9 324.3 1368.6 334 1338.2 334.3 1340.1 301.9 1369.5 292.4 Z"/>
<path d="M 1376.8 293.6 1385.2 273.7 1394.5 276.4 1409.3 280.9 1416.6 292.1 1397.5 289.4 1376.8 293.6 Z"/>
<path d="M 1394.2 265.2 1412.3 259.5 1445.9 264.7 1409.3 280.9 1394.5 276.4 1394.2 265.2 Z"/>
<path d="M 1291.7 267.9 1310.9 270.5 1333.8 269.9 1369.5 292.4 1340.1 301.9 1329.1 292.2 1299.6 293.3 1291.7 267.9 Z"/>
<path d="M 1269.8 333.7 1252.3 311.3 1248.7 293.5 1248.9 279.4 1256.4 284.8 1258.4 284.6 1271.6 287.1 1290.4 296.1 1299.6 293.3 1329.1 292.2 1340.1 301.9 1338.2 334.3 1351.8 351.4 1341.7 360.7 1318.9 357 1286.2 345.2 1269.8 333.7 Z"/>
<path d="M 1198.4 318.3 1199 315.1 1200 307.5 1200.8 301 1235.3 293.2 1227.8 308.8 1215.5 314.6 1198.4 318.3 Z"/>
<path d="M 1258.4 284.6 1256.4 284.8 1248.9 279.4 1242.1 271.7 1249.8 270.8 1258.4 284.6 Z"/>
<path d="M 1061.3 173 1066.3 149.3 1093.2 122.1 1114.7 116.1 1132.8 133.3 1099.2 151.4 1104.4 166.2 1088.2 188.3 1071.9 192.4 1061.3 173 Z"/>
<path d="M 1156.5 187.9 1171.5 191.4 1176.6 210.5 1162.5 214.6 1130.7 213.5 1130.5 200.5 1147.2 191 1156.5 187.9 Z"/>
<path d="M 1176.6 210.5 1196.4 219 1222.6 224.4 1212.4 238.3 1194.5 245.9 1185.8 244.6 1164.5 248.4 1156.9 247.3 1161.8 234.2 1147.9 232.1 1126.2 234 1122.7 231 1125.3 227.3 1130.7 213.5 1162.5 214.6 1176.6 210.5 Z"/>
<path d="M 1130.5 200.5 1130.7 213.5 1125.3 227.3 1104.7 225 1083.4 216.1 1078.4 201.3 1109.2 197.6 1126.3 198.2 1130.5 200.5 Z"/>
<path d="M 1094.3 232.6 1090 239.7 1076.7 241.6 1058 239.5 1053.3 236 1075.5 228.5 1094.2 230 1094.3 232.6 Z"/>
<path d="M 1122.7 231 1126.2 234 1112.3 243.7 1104.6 245 1092 241.6 1090 239.7 1094.3 232.6 1122.7 231 Z"/>
<path d="M 1147.9 232.1 1161.8 234.2 1156.9 247.3 1147.9 232.1 Z"/>
<path d="M 1156.9 247.3 1164.5 248.4 1158.7 257.2 1125.9 254.3 1112.3 243.7 1126.2 234 1147.9 232.1 1156.9 247.3 Z"/>
<path d="M 1147.2 191 1130.5 200.5 1126.3 198.2 1118.2 193.4 1117 188.7 1147.2 191 Z"/>
<path d="M 1151.6 180.7 1156.5 187.9 1147.2 191 1117 188.7 1135.1 178.9 1151.6 180.7 Z"/>
<path d="M 1155.5 169.6 1151.6 180.7 1135.1 178.9 1155.5 169.6 Z"/>
<path d="M 1078.4 201.3 1083.4 216.1 1075.5 228.5 1053.3 236 1041.5 235.4 1034.4 225.2 1033.6 221.5 1034.2 217.8 1038.4 202.9 1047.4 194.7 1055.1 194.5 1078.4 201.3 Z"/>
<path d="M 1125.9 254.3 1158.7 257.2 1155.5 266.6 1145.1 267.6 1127.5 270.3 1124.3 264.9 1125.9 254.3 Z"/>
<path d="M 1127.5 270.3 1145.1 267.6 1144.8 273.2 1111.9 279.9 1116.8 273.1 1127.5 270.3 Z"/>
<path d="M 1248.7 293.5 1235.3 293.2 1200.8 301 1153.6 296.3 1145.4 280.8 1162.4 271 1195.4 266.4 1213 272.5 1230.9 269.2 1242.1 271.7 1248.9 279.4 1248.7 293.5 Z M 1145.1 267.6 1155.5 266.6 1144.8 273.2 1145.1 267.6 Z" fill-rule="evenodd"/>
<path d="M 1116.8 273.1 1111.9 279.9 1107.6 267.3 1111.5 263.4 1114.4 267.5 1116.8 273.1 Z"/>
<path d="M 1092 241.6 1104.6 245 1105.6 250.8 1103.1 263.1 1102.5 264 1089 258.3 1076.2 247.2 1092 241.6 Z"/>
<path d="M 1053.3 236 1058 239.5 1038 244.5 1041.5 235.4 1053.3 236 Z"/>
<path d="M 1033.6 221.5 1034.4 225.2 1031.5 224.8 1033.6 221.5 Z"/>
<path d="M 1034.2 217.8 1033.6 221.5 1031.5 224.8 1014 215.8 1018.4 214.7 1034.2 217.8 Z"/>
<path d="M 1038.4 202.9 1034.2 217.8 1018.4 214.7 1038.4 202.9 Z"/>
<path d="M 949.8 267.3 963 267.3 958.6 293.9 947.1 284.8 949.8 267.3 Z"/>
<path d="M 958.6 293.9 963 267.3 949.8 267.3 955.7 257 989.4 258.8 1016.6 264 1004.5 272.1 996.2 290.9 970.1 300.3 958.6 293.9 Z"/>
<path d="M 965.6 200.7 952.4 212.9 946.2 200.7 957.9 193.7 965.6 200.7 Z"/>
<path d="M 1921 617.1 1919.3 620.4 1912 613.6 1913.7 611.8 1921 617.1 Z"/>
<path d="M 1886.9 544.6 1888.4 547.4 1881 543.1 1879.8 540.7 1886.9 544.6 Z"/>
<path d="M 1982.7 722.6 1965.7 719.5 1970.5 707.7 1991.8 709.4 1982.7 722.6 Z M 1942.6 742 1956.1 727.5 1968 732.1 1940.7 759.1 1928 750.6 1942.6 742 Z" fill-rule="evenodd"/>
<path d="M 1700.8 679 1687 688.3 1666.1 688.8 1655.7 694.8 1639 690 1643.3 678.9 1630 635.5 1636.9 621.3 1671.4 609.4 1679.5 595.9 1698.3 579.1 1718.9 580.1 1725.7 569.6 1741.9 565.5 1760.8 568.6 1752.4 581.8 1773.7 596.5 1787.2 583.6 1807.6 583.2 1813.3 605.3 1826.9 613.3 1831.5 624.1 1849.2 640.4 1853.2 656.2 1849.4 675.8 1833.8 702.3 1812.9 716.9 1781.3 711.2 1746 681.2 1729.6 675 1700.8 679 Z"/>
<path d="M 1454.4 458.2 1446.4 466.8 1442.8 454.4 1454.4 458.2 Z"/>
<path d="M 1445.9 264.7 1444.3 250.5 1473.1 238.9 1485.3 226.6 1487.5 226.1 1505.4 239.5 1505.3 248.4 1529.5 254.2 1535.3 262.6 1583.1 268.9 1606.9 263.8 1652.3 240.7 1648.2 222.8 1670.8 211.3 1699.7 206.7 1709.2 223.6 1727.7 234.5 1750.1 230.7 1725.8 264.5 1704.8 267.7 1690.4 278.2 1653 284.8 1665 293.6 1662 306.1 1677.3 323.9 1678.3 334.3 1659.2 363.6 1643.8 373.4 1621.4 380.3 1600.3 380.3 1585.2 370.3 1567.6 375.2 1562.1 380.9 1551.3 377.1 1548.2 347.2 1540.7 343 1525.4 337.3 1509.4 345.7 1500.1 342.8 1493.4 348.3 1489.6 345.1 1476.8 343.3 1450.6 332.3 1437.4 324.9 1432.4 302.8 1417.5 293.7 1416.6 292.1 1409.3 280.9 1445.9 264.7 Z"/>
<path d="M 1676.5 364.5 1670.8 377.9 1667.3 369.1 1676.5 364.5 Z"/>
<path d="M 1058 239.5 1076.7 241.6 1077.4 246.7 1068.5 247.9 1069.9 255 1088.3 269.2 1067.3 268.3 1049.4 253.5 1041.3 257.3 1038 244.5 1058 239.5 Z"/>
<path d="M 1055.1 194.5 1047.4 194.7 1044.9 185.9 1056.9 183.9 1055.1 194.5 Z"/>
<path d="M 982.8 203.3 969 192.7 972.2 174.3 1002.6 205.9 1003.1 218 979.9 221 982.8 203.3 Z"/>
<path d="M 919.4 130.8 924.4 138.2 896.4 147.2 885.7 134.8 919.4 130.8 Z"/>
<path d="M 1257.8 267.4 1269.9 267.7 1271.6 287.1 1258.4 284.6 1249.8 270.8 1257.8 267.4 Z"/>
<path d="M 1222 258.7 1257.8 267.4 1249.8 270.8 1242.1 271.7 1230.9 269.2 1222 258.7 Z"/>
<path d="M 1679.6 398.8 1675.9 411.5 1667.1 416.8 1670.6 397.2 1679.6 398.8 Z"/>
<path d="M 1556 464.1 1567.5 465.4 1574.3 473 1563.3 484.7 1556 464.1 Z M 1654.9 477 1643.7 476.1 1636.8 492.1 1614 495.7 1609.2 488.9 1627.8 482.8 1634.5 474.9 1640.8 476 1641.4 469.7 1654.9 477 Z" fill-rule="evenodd"/>
<path d="M 1641.4 469.7 1640.8 476 1634.5 474.9 1641.4 469.7 Z"/>
<path d="M 1076.7 241.6 1090 239.7 1092 241.6 1076.2 247.2 1077.4 246.7 1076.7 241.6 Z"/>
<path d="M 1158.8 116.3 1173 153.6 1155.9 163.9 1127.1 167.5 1117 152.2 1132.8 133.3 1114.7 116.1 1158.8 116.3 Z"/>
<path d="M 1125.3 227.3 1122.7 231 1094.3 232.6 1094.2 230 1104.7 225 1125.3 227.3 Z"/>
<path d="M 1083.4 216.1 1104.7 225 1094.2 230 1075.5 228.5 1083.4 216.1 Z"/>
<path d="M 1202.4 419.9 1204.7 405.8 1213.4 400 1218.1 411.5 1239.3 429.4 1235.3 430.3 1217.2 418.1 1202.4 419.9 Z"/>
<path d="M 1788.2 282.3 1782.1 300.9 1772.1 307.4 1753.8 302.6 1788.2 282.3 Z"/>
<path d="M 676.9 612.1 678.1 622.7 691.1 625.9 696.5 643 679 639.8 651.7 623.6 656.7 609.1 676.9 612.1 Z"/>
<path d="M 1288.9 394.4 1295 407.5 1270.4 422.2 1241.6 429.8 1237.7 409.2 1241 402.3 1261.1 405.8 1272.9 396.6 1288.9 394.4 Z"/>
<path d="M 1194.2 336.9 1211.1 330.5 1217.8 321.3 1248.4 337.9 1258.7 338.3 1269 341.4 1282.3 362.5 1285.5 363.2 1286.6 365.3 1306.7 373.8 1305.6 388.9 1288.9 394.4 1272.9 396.6 1261.1 405.8 1241 402.3 1237.7 409.2 1217.4 381.7 1213.8 368.4 1195.2 344.1 1194.2 336.9 Z"/>
<path d="M 2000 1000 0 1000 0 970.6 174.8 975.6 150.8 955.8 182.1 948.2 159.3 930 198.2 919.7 248.8 912.8 354.4 912.5 440.9 918.3 464.8 909 508.8 905.6 576.5 910.9 617 905.6 619.5 889.5 658.3 894.9 655.8 913.6 567.1 935.4 648.6 954.2 841.4 946.3 801.2 935.2 839.5 926 958.8 898.3 1052.9 889 1107 888.3 1150.5 891.5 1222.3 883.9 1292.3 867 1382.7 877.4 1376.7 890.6 1431.4 885.9 1459.9 873.4 1486 871.5 1554 873.6 1631.1 866 1671.5 873.3 1754.9 866.9 1808.3 871.8 1857.1 880.9 1951.1 898.3 1922.7 913.2 1887.7 949.7 2000 970.6 2000 1000 Z"/>
<path d="M 1181.8 304.8 1187 303.5 1188.7 305.2 1181.8 304.8 Z"/>
<path d="M 1181.8 304.8 1188.7 305.2 1183.2 307.9 1181.8 304.8 Z"/>
<path d="M 987.9 304.6 992.7 320.8 951.9 346.4 936.7 350.6 918.1 380.6 905.4 381 919.8 354.1 946.9 333.7 951.9 315.3 967.1 301.3 987.9 304.6 Z"/>
<path d="M 1204.8 377.8 1138.9 377.8 1139.8 324.6 1160.6 328.5 1190.4 326.6 1193.5 334.7 1185.3 346.1 1204.8 377.8 Z"/>
<path d="M 1138.9 377.8 1132.4 391.2 1088.1 369.9 1082.5 373 1066.7 369.6 1057.2 364.6 1052.7 331.6 1063.8 315.9 1084.7 320.7 1106 331.9 1115.9 318.3 1139.8 324.6 1138.9 377.8 Z"/>
<path d="M 1265.5 455.5 1249.8 472.2 1232.5 478.2 1219.8 481 1196.1 469.4 1188.7 451.8 1190.3 440.9 1202.4 419.9 1217.2 418.1 1235.3 430.3 1237.6 439.3 1242.7 449 1265.5 455.5 Z"/>
<path d="M 1235.3 430.3 1239.3 429.4 1239.7 436.3 1237.6 439.3 1235.3 430.3 Z"/>
<path d="M 1271.9 436.6 1265.5 455.5 1242.7 449 1237.6 439.3 1239.7 436.3 1245.1 442 1271.9 436.6 Z"/>
<path d="M 1188.4 505.3 1169 506.3 1164.3 507.5 1171.3 480.5 1188.9 476.4 1194.6 489.4 1188.4 505.3 Z"/>
<path d="M 1169 506.3 1169.3 513.4 1161.2 515.8 1164.3 507.5 1169 506.3 Z"/>
<path d="M 1103.1 263.1 1105.6 250.8 1106.8 258.2 1103.1 263.1 Z"/>
<path d="M 1124.3 264.9 1127.5 270.3 1116.8 273.1 1114.4 267.5 1119.9 265.3 1124.3 264.9 Z"/>
<path d="M 1104.6 245 1112.3 243.7 1125.9 254.3 1124.3 264.9 1119.9 265.3 1112.5 262.2 1106.8 258.2 1105.6 250.8 1104.6 245 Z"/>
<path d="M 1111.5 263.4 1107.6 267.3 1102.5 264 1103.1 263.1 1106.8 258.2 1112.5 262.2 1111.5 263.4 Z"/>
<path d="M 1114.4 267.5 1111.5 263.4 1112.5 262.2 1119.9 265.3 1114.4 267.5 Z"/>
<path d="M 657.3 440.2 661.7 439.7 661.5 443.8 656.8 444.4 657.3 440.2 Z"/>
<path d="M 1171.3 480.5 1152.1 470.9 1136.5 454.3 1147.1 446.9 1174.2 445.5 1188.7 451.8 1196.1 469.4 1188.9 476.4 1171.3 480.5 Z"/>
</g>
</svg>
